<svg width="1280" height="720" viewBox="0 0 1280 720" fill="none" xmlns="http://www.w3.org/2000/svg">
  <rect width="1280" height="720" fill="#070B14"/>
  <rect x="36" y="32" width="1208" height="112" rx="24" fill="url(#paint0_linear)" fill-opacity="0.2" stroke="#2A3B5D"/>
  <rect x="36" y="172" width="760" height="512" rx="28" fill="#0D1322" stroke="#24324D"/>
  <rect x="824" y="172" width="420" height="240" rx="28" fill="#0D1322" stroke="#24324D"/>
  <rect x="824" y="436" width="420" height="248" rx="28" fill="#0D1322" stroke="#24324D"/>
  <text x="72" y="85" fill="#E6F7FF" font-family="Avenir Next, Segoe UI, sans-serif" font-size="34" font-weight="600">AstraCompute Control Grid</text>
  <text x="72" y="118" fill="#8AA3C2" font-family="Menlo, Monaco, monospace" font-size="16">Robotics-inspired live dashboard placeholder</text>
  <rect x="72" y="220" width="328" height="188" rx="22" fill="url(#paint1_linear)" fill-opacity="0.18" stroke="#2F486A"/>
  <rect x="432" y="220" width="328" height="188" rx="22" fill="url(#paint2_linear)" fill-opacity="0.18" stroke="#2F486A"/>
  <rect x="72" y="438" width="688" height="198" rx="22" fill="#10192B" stroke="#2F486A"/>
  <rect x="860" y="208" width="350" height="52" rx="16" fill="#10192B" stroke="#2F486A"/>
  <rect x="860" y="278" width="350" height="52" rx="16" fill="#10192B" stroke="#2F486A"/>
  <rect x="860" y="348" width="350" height="52" rx="16" fill="#10192B" stroke="#2F486A"/>
  <rect x="860" y="472" width="350" height="56" rx="16" fill="#10192B" stroke="#2F486A"/>
  <rect x="860" y="544" width="350" height="56" rx="16" fill="#10192B" stroke="#2F486A"/>
  <text x="96" y="256" fill="#DFF8FF" font-family="Menlo, Monaco, monospace" font-size="18">CPU LANE</text>
  <text x="456" y="256" fill="#E7FFF0" font-family="Menlo, Monaco, monospace" font-size="18">GPU LANE</text>
  <text x="96" y="474" fill="#DFF8FF" font-family="Menlo, Monaco, monospace" font-size="18">TIMELINE</text>
  <text x="860" y="198" fill="#DFF8FF" font-family="Menlo, Monaco, monospace" font-size="18">DISPATCH CONSOLE</text>
  <text x="860" y="462" fill="#DFF8FF" font-family="Menlo, Monaco, monospace" font-size="18">ADAPTIVE QUEUE</text>
  <defs>
    <linearGradient id="paint0_linear" x1="36" y1="32" x2="1244" y2="144" gradientUnits="userSpaceOnUse">
      <stop stop-color="#42D7FF"/>
      <stop offset="1" stop-color="#7CFF9F"/>
    </linearGradient>
    <linearGradient id="paint1_linear" x1="72" y1="220" x2="400" y2="408" gradientUnits="userSpaceOnUse">
      <stop stop-color="#42D7FF"/>
      <stop offset="1" stop-color="#0D1322"/>
    </linearGradient>
    <linearGradient id="paint2_linear" x1="432" y1="220" x2="760" y2="408" gradientUnits="userSpaceOnUse">
      <stop stop-color="#7CFF9F"/>
      <stop offset="1" stop-color="#0D1322"/>
    </linearGradient>
  </defs>
</svg>
